<?xml version="1.0" encoding="UTF-8"?><svg id="Layer_1" xmlns="http://www.w3.org/2000/svg" viewBox="0 0 238.71 33.47"><defs><style>.cls-1{fill:#050706;}.cls-2{fill:#262424;}</style></defs><path class="cls-1" d="M237.98,32.56c-23,3.93-44.15-7.49-43.86-16.31,.27-8.33,14-7.89,19.03-6.71-11.03-8.51-30.1-7.3-34.68-6.97-.58,.04-.98-.26-1.01-.6s.2-.68,.89-.77c50.57-7.03,49.9,22.51,49.9,22.51,0,0-6.09-7.19-13.39-8.66-3.78-.76-8.75-.37-8.94,2.8-.44,7.16,17.09,14.65,31.89,13.35,1.19-.08,1.19,1.2,.18,1.35Z"/><path class="cls-2" d="M115.22,33.47c-1.83,0-3.31-.18-4.98-.64-1.67-.46-3.13-1.22-4.4-2.27-1.27-1.06-2.28-2.45-3.03-4.18-.75-1.73-1.12-3.87-1.12-6.42V.6h8.45V20.08c0,.96,.15,1.82,.43,2.56,.28,.74,.67,1.37,1.16,1.87,.49,.5,1.06,.88,1.71,1.14,.65,.26,1.07,.34,1.8,.34,.73,0,1.13-.03,1.78-.29,.65-.25,1.22-.63,1.71-1.14,.49-.5,.88-1.13,1.16-1.87,.28-.74,.43-1.6,.43-2.56V.6h8.45V20c0,2.55-.37,4.69-1.12,6.42-.75,1.73-1.76,3.13-3.03,4.18-1.27,1.06-2.73,1.81-4.4,2.27-1.67,.46-3.13,.59-4.96,.59h-.02Z"/><rect class="cls-2" x="29.3" y=".61" width="8.39" height="32.21"/><polygon class="cls-2" points="171.11 25.15 171.14 .61 162.72 .61 162.72 32.82 181.35 32.82 181.35 25.15 171.11 25.15"/><path class="cls-2" d="M66.84,8.54c-.22-.86-.53-1.68-.94-2.46-.41-.78-.91-1.51-1.51-2.18-.59-.67-1.26-1.25-2-1.74-.74-.48-1.55-.86-2.43-1.14-.88-.27-1.82-.41-2.82-.41h-14.82V32.82h8.39v-11.26h6.57c1.47-.01,2.82-.32,4.03-.92,1.21-.6,2.26-1.38,3.12-2.35,.87-.97,1.54-2.08,2.01-3.32,.47-1.24,.7-2.52,.7-3.82,0-.88-.11-1.75-.33-2.61Zm-8.41,3.91c-.15,.43-.37,.82-.65,1.15-.28,.33-.63,.6-1.05,.81-.42,.21-.89,.32-1.41,.32h-4.6V7.25h4.6c.52,0,.99,.11,1.4,.33,.41,.22,.76,.5,1.05,.84,.29,.34,.51,.73,.66,1.16,.15,.43,.23,1.11,.23,1.54,0,.46-.08,.91-.23,1.34Z"/><path class="cls-2" d="M98.75,30.18l.92-.65-.51-.68s0-.02-.01-.03l-.86-1.14h0s-2.3-3.05-2.3-3.05h.02s-1.31-1.79-1.31-1.79l-1.58,1.23c-.45,.28-.93,.52-1.44,.72-.86,.33-1.78,.52-2.74,.56-1.2,.05-2.31-.14-3.33-.55-1.02-.41-1.92-.99-2.68-1.75-.76-.75-1.36-1.64-1.81-2.67-.45-1.03-.7-2.14-.74-3.33s.11-2.33,.48-3.39c.37-1.07,.9-2.01,1.6-2.82,.7-.82,1.54-1.47,2.53-1.96,.99-.49,2.08-.76,3.28-.81,.96-.04,1.88,.07,2.75,.33,.87,.26,1.68,.64,2.41,1.15,.04,.02,.08,.04,.13,.06l.59,.39,.39-.64s.04-.06,.06-.09l3.49-5.4s.03-.07,.04-.11l.41-.63-.64-.39c-.1-.1-.21-.19-.35-.26-1.41-.86-2.9-1.51-4.47-1.94S89.85-.05,88.1,.01c-1.55,.06-3.02,.32-4.43,.78-1.41,.46-2.71,1.07-3.93,1.84-1.21,.77-2.3,1.69-3.28,2.75-.97,1.06-1.8,2.23-2.48,3.5-.68,1.28-1.19,2.63-1.53,4.07-.34,1.44-.48,2.93-.42,4.47,.06,1.55,.32,3.02,.77,4.43,.45,1.41,1.06,2.71,1.84,3.91,.78,1.2,1.69,2.29,2.75,3.27,1.05,.97,2.21,1.8,3.48,2.48,1.27,.68,2.62,1.19,4.06,1.53,1.44,.34,2.93,.48,4.47,.42,1.75-.07,3.41-.39,4.97-.95,1.23-.45,2.39-1.02,3.48-1.72v.02s.73-.52,.73-.52c.04-.03,.09-.06,.13-.09,.01,0,.02-.02,.03-.02Z"/><path class="cls-2" d="M19.43,20.17c.78-.45,1.5-.99,2.16-1.62,.09-.09,.18-.18,.27-.28,.54-.56,1.02-1.16,1.43-1.83,.48-.77,.85-1.61,1.12-2.49,.27-.89,.4-1.83,.4-2.81,0-.15-.02-.29-.02-.43-.05-1.28-.31-2.51-.81-3.66-.56-1.28-1.32-2.4-2.29-3.35-.97-.95-2.1-1.71-3.41-2.27-1.3-.56-2.7-.84-4.19-.84H0V32.82H8.39V7.25s2.38-.02,3.61-.01c0,0,0,0,0,0,0,0,0,0,0,0,.03,0,.06,0,.08,0h0c2.29,.05,4.13,1.84,4.13,4.05,0,1.81-1.08,3.18-3.05,3.89-1.72,.57-3.04,2.02-3.04,3.86,0,.36,.07,.71,.16,1.05,.2,.98,.71,1.98,1.1,2.68l4.92,9.26c.19,.3,.19,.35,.38,.59,.15,.19,.42,.22,.66,.22h8.83l-6.75-12.65Z"/><path class="cls-2" d="M152.83,20.17c.78-.45,1.5-.99,2.16-1.62,.09-.09,.18-.18,.27-.28,.54-.56,1.02-1.16,1.43-1.83,.48-.77,.85-1.61,1.12-2.49,.27-.89,.4-1.83,.4-2.81,0-.15-.02-.29-.02-.43-.05-1.28-.31-2.51-.81-3.66-.56-1.28-1.32-2.4-2.29-3.35-.97-.95-2.1-1.71-3.41-2.27-1.3-.56-2.7-.84-4.19-.84h-14.1V32.81h8.39V7.24s2.38-.02,3.61-.01c0,0,0,0,0,0,0,0,0,0,0,0,.03,0,.06,0,.08,0h0c2.29,.05,4.13,1.84,4.13,4.05,0,1.81-1.08,3.18-3.05,3.89-1.72,.57-3.04,2.02-3.04,3.86,0,.36,.07,.71,.16,1.05,.2,.98,.71,1.98,1.1,2.68l4.92,9.26c.19,.3,.19,.35,.38,.59,.15,.19,.42,.22,.66,.22h8.83l-6.75-12.65Z"/></svg>